<svg id="ILLUSTRATION" xmlns="http://www.w3.org/2000/svg" viewBox="0 0 900 350"><defs><style>.cls-1{fill:#dddddc;}.cls-2{fill:#ececeb;}.cls-28,.cls-3{fill:#cfcfcd;}.cls-23,.cls-4{fill:#c4c4c4;}.cls-24,.cls-5{fill:#a3a3a3;}.cls-6{fill:#a0cf7f;}.cls-7{fill:#99c26c;}.cls-8{fill:#c0db8f;}.cls-9{fill:#d9e256;}.cls-10{fill:#b8c744;}.cls-11{fill:#6f9d52;}.cls-12{fill:#738d57;}.cls-13{fill:#e6e97b;}.cls-14,.cls-30,.cls-34{fill:#2b2b2b;}.cls-14,.cls-21,.cls-22,.cls-23,.cls-24,.cls-25,.cls-26,.cls-27,.cls-28{fill-rule:evenodd;}.cls-14,.cls-30{opacity:0.1;}.cls-15{fill:#9ca0a1;}.cls-16{fill:#858686;}.cls-17,.cls-25{fill:#35785e;}.cls-18,.cls-26{fill:#3f8f6f;}.cls-19,.cls-21{fill:#54b08b;}.cls-20,.cls-27{fill:#74c7a5;}.cls-22,.cls-29{fill:#8f8f8f;}.cls-31{fill:#dfbda5;}.cls-32{fill:#c2987a;}.cls-33{fill:#5a753d;}.cls-35{fill:#8b6651;}.cls-36{fill:#e9cbb7;}.cls-37{fill:#474748;}.cls-38{fill:#4f5353;}.cls-39{fill:#d1ab92;}.cls-40{fill:#737474;}.cls-41{fill:#fff;}</style></defs><title>diplomats_Mediator_INFP_introduction</title><polygon class="cls-1" points="733.68 9.59 670.75 15.96 725.36 30.73 760.98 31.09 818.05 35.96 878.24 19.59 771.53 17.32 733.68 9.59"/><polygon class="cls-2" points="670.75 15.96 739.61 0.5 788 10.13 814.86 6.41 878.24 19.59 796.61 24.6 746.45 14.14 670.75 15.96"/><polygon class="cls-1" points="58.57 43.79 15.21 50.67 53.38 62.45 84.91 61.23 117.62 65.09 158.82 49.52 84.96 49.76 58.57 43.79"/><polygon class="cls-2" points="15.21 50.67 75.2 39.76 103.01 42.88 127 41.35 158.82 49.52 102.5 55.6 67.53 47.5 15.21 50.67"/><g id="mountain"><polygon class="cls-1" points="494.83 108.43 532.86 129 589.95 129.69 706.88 187.29 685.38 251.75 397.69 242.15 269.42 224.32 305.88 178.38 388.42 142.72 446.88 146.15 494.83 108.43"/><polygon class="cls-3" points="388.42 142.72 398.51 212.47 319.9 225.12 301.22 176.56 388.42 142.72"/><polygon class="cls-4" points="414.47 199.01 395.49 194.01 357.21 199.29 351.68 221.46 413.72 221.46 414.47 199.01"/><polygon class="cls-4" points="586.1 228.45 563.08 190.53 524.05 172.57 488.19 172.24 425.48 216.47 586.1 228.45"/><polygon class="cls-3" points="586.1 228.45 499.76 213.48 488.19 172.24 395.49 194.01 405.63 232.1 586.1 228.45"/><polygon class="cls-4" points="610.62 158.11 609.9 185.58 592.61 220.96 671.29 222.87 610.62 158.11"/><polygon class="cls-2" points="524.05 172.57 494.83 108.43 540.07 129.17 524.05 172.57"/><polygon class="cls-2" points="589.95 129.69 648.59 156.26 646.14 169.08 609.9 185.58 589.95 129.69"/><polygon class="cls-3" points="422.31 145.3 450 122.19 494.83 108.43 524.05 172.57 488.19 172.24 422.31 145.3"/><polygon class="cls-3" points="563.08 190.53 609.9 185.58 632.3 219.8 553.2 212.36 563.08 190.53"/><polygon class="cls-5" points="307.89 191.28 357.21 199.29 349.18 234.93 298.14 216.72 307.89 191.28"/></g><g id="land_and_lake" data-name="land and lake"><polygon class="cls-6" points="631.91 220.21 682.64 217.47 714.45 237.35 639.47 246.95 631.91 220.21"/><polygon class="cls-7" points="568.63 217.47 581.52 210.26 623.7 213.36 682.64 217.47 613.34 240.78 568.63 217.47"/><polygon class="cls-8" points="508.79 237.52 528.52 214.89 581.52 210.26 590.81 226.72 532 242.67 508.79 237.52"/><path class="cls-9" d="M343.19,311.07l-13.07,38.74,143.59-9.6,81.16,10.29,73.6-4.46L728,290.5s-32-17.49-34-17-116.07-4.62-116.07-4.62l-113-11.32-100.08,8.74Z"/><polygon class="cls-10" points="373.69 279.91 391.69 292.55 465.97 278.67 685.73 324.44 734.74 272.5 624.86 239.07 414.9 255.52 373.69 279.91"/><polygon class="cls-8" points="582.38 251.75 590.81 226.72 714.45 237.35 766.03 259.98 582.38 251.75"/><polygon class="cls-6" points="510.85 233.41 590.81 226.72 628.81 243.87 502.6 255.01 510.85 233.41"/><polygon class="cls-6" points="408.71 226.98 405.1 207.18 499.76 213.48 498.21 243.44 408.71 226.98"/><polygon class="cls-8" points="454.62 227.75 450.32 217.98 405.1 207.18 374.14 211.04 443.27 237.52 454.62 227.75"/><polygon class="cls-6" points="425.22 234.18 419.71 219.35 374.14 211.04 307.86 218.49 409.48 244.47 425.22 234.18"/><polygon class="cls-7" points="510.85 248.07 509.65 228.78 450.32 217.98 419.71 219.35 415.93 222.61 510.85 248.07"/><polygon class="cls-6" points="541.29 252.95 628.81 243.87 724.42 251.75 694.16 275.75 640.16 277.47 541.29 252.95"/><polyline class="cls-7" points="503.97 246.95 527.23 245.5 628.81 243.87 644.98 270.44 598.21 269.58 514.98 254.15 503.97 245.58"/><polygon class="cls-8" points="483.51 248.84 415.93 222.61 326.17 221.58 343.37 245.24 452.04 250.72 483.51 248.84"/><polygon class="cls-6" points="510.16 244.55 489.57 240.35 415.93 222.61 408.37 229.47 491.59 258.27 510.16 244.55"/><polygon class="cls-7" points="424.87 244.04 408.71 229.47 330.3 229.55 339.32 265.3 424.87 244.04"/><polygon class="cls-11" points="486.61 253.72 491.12 247.17 408.37 229.47 347.84 252.95 486.61 253.72"/><polygon class="cls-11" points="626.41 274.04 643.43 291.01 736.8 287.93 684.7 259.12 644.98 270.44 626.41 274.04"/><polygon class="cls-12" points="417.48 262.21 497.44 259.64 643.43 291.01 644.98 270.44 498.47 248.84 417.48 262.21"/><polygon class="cls-12" points="379.82 307.98 394.63 277.25 497.44 259.64 498.47 248.84 347.84 252.95 307.6 255.52 308.63 301.3 379.82 307.98"/><polygon class="cls-9" points="499.76 213.48 489.57 240.35 527.23 245.5 528.52 214.89 499.76 213.48"/><polygon class="cls-9" points="489.57 240.35 466.49 249.61 492.97 257.58 522.97 252.44 527.23 245.5 489.57 240.35"/><polygon class="cls-9" points="466.49 249.61 463.01 265.61 522.97 265.3 522.97 252.44 466.49 249.61"/><polygon class="cls-13" points="593.77 287.44 644.9 298.92 659.8 298.35 662.63 299.7 644.34 300.94 589.48 288.22 593.77 287.44"/><polygon class="cls-13" points="619.3 297.3 645.6 303.6 666.6 302.03 669.31 303.49 645.15 305.74 613.32 297.53 619.3 297.3"/><polygon class="cls-13" points="489.19 263.03 477.27 261.62 463.01 265.61 453.92 264.45 442.33 269.19 453.84 271.1 463.18 270.02 498.37 274.84 523.47 270.77 546.15 274.51 561.83 273.51 535.23 264.28 526.97 264.45 522.8 261.54 489.19 263.03"/><polygon class="cls-13" points="489.95 239.3 498.37 238.72 506.17 241.79 517.22 241.08 527.23 245.5 520.51 246.07 512.8 243.91 503.83 244.78 494.49 242.91 482.52 243.12 489.95 239.3"/><polygon class="cls-13" points="541.02 278.5 547.53 279 554.37 278.04 556.5 278.75 547.53 280.16 538.19 278.91 541.02 278.5"/><polygon class="cls-13" points="535.1 279.7 547.74 281.74 559.75 279.79 561.54 280.37 547.4 283.28 532.64 280.16 535.1 279.7"/><polygon class="cls-13" points="405.55 281.41 431.15 276.75 433.4 277.17 407.55 282.07 405.55 281.41"/><polygon class="cls-13" points="401.55 284.98 429.15 279.58 431.07 280.24 403.71 285.9 401.55 284.98"/></g><g id="trees_behind" data-name="trees behind"><polygon class="cls-14" points="62.41 168.82 76.55 165.46 90.69 169.03 76.22 172.61 62.41 168.82"/><polyline class="cls-5" points="68.08 152.57 68.13 152.73 68.88 155.52 70.46 156.33 69.96 152.69"/><polygon class="cls-3" points="68.83 151.74 70.15 156.06 71.8 156.87 69.44 152.22 68.83 151.74"/><polygon class="cls-15" points="75.13 156.43 68.88 155.52 75.07 159.82 75.13 156.43"/><polygon class="cls-5" points="75.47 153.15 79.35 152.37 76.84 162.47 74.92 158.85 75.47 153.15"/><polygon class="cls-15" points="75.92 156.68 79.56 169.25 77.19 170.23 75.17 160.3 75.92 156.68"/><polygon class="cls-16" points="75.59 159.88 75.09 162.87 74.14 169.38 77.19 170.23 75.59 159.88"/><polygon class="cls-3" points="74.09 152.18 75.09 162.87 76.76 152.36 74.09 152.18"/><polygon class="cls-17" points="86.07 148.69 87.38 151.26 83.99 153.44 74.19 152.68 70.17 147.53 86.07 148.69"/><polygon class="cls-18" points="70.91 149.31 67.66 148.21 62.2 148.76 67.23 154.32 74.19 152.68 79.17 148.74 70.91 149.31"/><polygon class="cls-18" points="66.57 141.88 77.28 150.2 88.86 151.95 90.67 148.52 66.57 141.88"/><polygon class="cls-19" points="65.17 143.62 56.16 144.78 60.6 150.85 77.28 150.2 76.05 147.77 65.17 143.62"/><polygon class="cls-18" points="80.49 141.22 90.67 148.52 94.88 145.95 94.41 143.04 80.49 141.22"/><polygon class="cls-19" points="76.63 141.88 76.05 147.77 90.67 148.52 86.81 144.87 81.83 143.41 76.63 141.88"/><polygon class="cls-18" points="71.02 141.22 60.25 141.47 56.16 144.78 76.05 147.77 86.34 143.04 71.02 141.22"/><polygon class="cls-20" points="75.58 138.81 86.81 144.87 94.41 143.04 90.55 140.47 87.28 140.06 75.58 138.81"/><polygon class="cls-19" points="71.48 138.73 67.39 139.81 60.25 141.47 86.81 144.87 80.73 138.4 71.48 138.73"/><polygon class="cls-20" points="75.11 135.57 67.39 139.81 87.28 140.06 82.22 136.99 75.11 135.57"/><polygon class="cls-21" points="327.34 156.07 320.32 155.27 317.3 156.94 316.82 160.63 319.92 160.67 330.5 160.24 327.34 156.07"/><polygon class="cls-22" points="334.38 170.23 338.73 168.42 339.42 168.84 334.15 173.18 334.38 170.23"/><polygon class="cls-23" points="338.73 168.42 340.35 164.6 341.77 164.67 339.42 168.84 338.73 168.42"/><polygon class="cls-24" points="333.56 177.23 328.45 167.53 327.62 162.26 329.75 167.34 332.52 171.34 333.56 177.23"/><polygon class="cls-23" points="333.45 175.06 329.11 167.49 327.98 164.17 330.83 162.44 330.21 167.45 333.35 172.07 333.45 175.06"/><polygon class="cls-24" points="333.81 187.2 333.5 178.95 334 165.04 334.97 164.85 336.75 185.83 333.81 187.2"/><polygon class="cls-23" points="334 165.04 332.94 165.28 332.13 186.49 333.81 187.2 334 165.04"/><polygon class="cls-25" points="347.51 165.44 339.42 166.87 332.94 165.28 327.95 164.16 322.67 164.19 316.82 160.63 328.21 159.62 341.59 162.55 351.42 162.02 347.51 165.44"/><polygon class="cls-26" points="316.82 160.63 327.14 162.92 341.4 162.92 328.29 158.84 316.82 160.63"/><polygon class="cls-26" points="341.4 162.92 343.11 161.32 350.08 157.64 351.42 162.02 341.4 162.92"/><polygon class="cls-25" points="341.4 162.92 350.08 157.64 332.15 155.96 328.21 158.88 341.4 162.92"/><polygon class="cls-21" points="350.08 157.64 347.94 154.95 329.31 153.2 332.52 156.33 350.08 157.64"/><polygon class="cls-26" points="328.21 158.88 332.52 156.33 330.05 153.39 327.56 152.56 323.06 152.09 320.32 155.27 328.21 158.88"/><polygon class="cls-27" points="347.94 154.95 345.74 149.75 333.6 149.04 335.23 146.43 327.81 148.09 323.06 152.09 328.53 150.75 330.05 153.39 347.94 154.95"/><polygon class="cls-21" points="330.05 153.39 328.53 150.2 323.06 152.09 330.05 153.39"/><polygon class="cls-27" points="335.23 146.43 345.74 149.75 328.53 150.2 335.23 146.43"/><polygon class="cls-14" points="692.74 169.48 707.13 166.06 721.51 169.7 706.8 173.34 692.74 169.48"/><path class="cls-25" d="M699.22,142.75l-4,1.34.78,1.67L703.3,148s-.61-4.9-.95-4.85S699.22,142.75,699.22,142.75Z"/><polygon class="cls-25" points="703.36 142.03 713.66 140.48 704.7 147.6 703.36 142.03"/><polygon class="cls-22" points="706.66 149.11 707.55 142.27 704.96 142.43 706.66 149.11"/><polygon class="cls-22" points="702.24 148.5 697.94 147.54 700.62 150.5 702.97 151.2 702.24 148.5"/><polygon class="cls-24" points="700.62 150.5 695.9 144 693.25 143.71 699.2 149.91 700.62 150.5"/><polygon class="cls-22" points="710.55 168.66 709.23 156.92 708.16 157.35 707.55 158.03 705.74 163.95 706.52 170.44 710.55 168.66"/><polygon class="cls-23" points="706.45 170.37 707.55 158.03 706.85 158.21 706.58 158.66 704.76 164.07 703.26 169.54 706.45 170.37"/><polygon class="cls-24" points="706.58 158.66 703.26 169.54 701.92 169.18 705.4 159.45 705.85 158.87 706.58 158.66"/><polygon class="cls-24" points="706.52 158.66 703.26 144 704.96 142.43 709.23 156.92 706.52 158.66"/><polygon class="cls-28" points="706.58 158.66 703.13 150.35 701.51 144.87 703.26 144 704.86 148.69 706.21 156.46 706.58 158.66"/><polygon class="cls-22" points="705.4 159.45 700.59 145.07 701.51 144.87 704.03 151.73 706.58 158.66 705.4 159.45"/><polygon class="cls-26" points="686.36 144.92 696.08 144.6 698.46 144.79 700.76 145.63 711.51 142.31 697.12 138.44 686.36 144.92"/><polygon class="cls-25" points="686.36 144.92 678.92 142.56 696.77 141.14 726.02 137.27 711.51 142.31 696.77 141.52 686.36 144.92"/><polygon class="cls-25" points="696.77 141.52 678.97 142.56 690.1 137.52 701 136.47 699.4 139.15 696.77 141.52"/><polygon class="cls-21" points="696.77 141.52 701 136.47 708.49 136.47 726.02 137.27 696.77 141.52"/><polygon class="cls-26" points="678.92 142.56 687.32 133.8 694.73 134.87 701 136.47 678.92 142.56"/><polygon class="cls-27" points="687.32 133.8 701 136.47 726.02 137.27 720.95 134.58 704.88 131.73 687.32 133.8"/><polygon class="cls-26" points="706.86 130.58 713.13 129.51 718.66 134.14 704.88 132.11 706.86 130.58"/><polygon class="cls-21" points="713.13 129.51 704.88 132.11 682.11 139.25 685.37 131.2 701.23 129.86 713.13 129.51"/><polygon class="cls-27" points="685.37 131.2 702.05 127.08 713.26 129.49 685.37 131.2"/><polygon class="cls-26" points="700.37 142.37 700.76 145.63 696.09 144.6 700.37 142.37"/></g><g id="hill"><polygon class="cls-3" points="362.77 202.01 361.18 213.73 363.69 229.57 340.29 237.43 332.66 204.75 362.77 202.01"/><polygon class="cls-1" points="353.18 187.54 382.62 186.88 361.18 213.73 342.8 208.62 345.92 188.79 353.18 187.54"/><polygon class="cls-4" points="340.42 203.75 342.8 208.62 340.29 237.43 316.53 241.91 306.52 205.5 340.42 203.75"/><polygon class="cls-3" points="347.2 193.15 342.8 208.62 210.2 215.72 334.91 190.53 347.2 193.15"/><polygon class="cls-5" points="157.74 209.24 162.38 246.27 224.8 218.24 216.81 195.86 157.74 209.24"/><polygon class="cls-5" points="147.16 178.12 152.06 218.75 212.68 209.75 215.77 187.12 147.16 178.12"/><polygon class="cls-5" points="149.23 153.95 166.76 196.89 180.44 194.92 216.81 166.81 212.68 156.26 149.23 153.95"/><polygon class="cls-4" points="169.86 156.78 179.15 167.75 166.76 196.89 117.42 194.52 113.11 173.41 169.86 156.78"/><polygon class="cls-6" points="160.75 155.06 153.87 149.75 201.67 150.6 207.86 174.61 192.04 161.58 160.75 155.06"/><polygon class="cls-5" points="81.65 180.44 67.47 227.45 63.71 270.02 156.96 249.35 126.53 190.21 98.93 198.44 81.65 180.44"/><polygon class="cls-5" points="111.63 157.26 105.31 184.77 98.41 233.41 154.9 240.09 134.77 191.7 124.92 174.24 111.63 157.26"/><polygon class="cls-4" points="70.81 176.58 60.71 199.01 65.72 213.23 67.47 227.45 99.24 231.44 113.11 173.41 70.81 176.58"/><polygon class="cls-5" points="96.09 165.26 39.36 170.58 65.72 213.23 94.03 196.89 98.07 182.88 96.09 165.26"/><polygon class="cls-8" points="110.53 159 103.83 155.92 153.87 149.75 213.19 164.15 179.15 167.75 110.53 159"/><polygon class="cls-5" points="671.29 222.87 669.48 248.07 685.22 259.3 739.12 260.67 714.88 233.92 671.29 222.87"/><polygon class="cls-5" points="665.87 220.55 663.81 246.01 685.22 259.3 696.74 241.9 684.44 221.06 665.87 220.55"/><polygon class="cls-4" points="649.62 195.61 647.3 205.12 665.61 238.04 673.09 243.69 678.94 234.18 679.8 210.52 649.62 195.61"/><polygon class="cls-5" points="643.6 227.07 654.61 255.52 685.22 259.3 647.04 203.75 643.6 227.07"/><polygon class="cls-4" points="633.97 206.15 634.32 224.32 628.47 243.87 654.61 255.52 647.04 203.75 633.97 206.15"/><polygon class="cls-5" points="635.69 178.72 609.9 185.58 634.32 224.32 652.54 197.24 635.69 178.72"/><polygon class="cls-4" points="668.71 175.63 638.44 187.29 647.3 205.12 683.15 216.78 680.06 177.01 668.71 175.63"/><polyline class="cls-4" points="759.16 228.44 772.4 211.81 789.94 203.06 807.65 234.27 759.5 235.98 759.16 228.44"/><polygon class="cls-5" points="825.02 221.06 823.86 243.25 836.37 274.04 797.16 277.64 807.65 234.27 825.02 221.06"/><polygon class="cls-5" points="812.46 188.32 850.29 177.86 822.95 242.67 807.65 234.27 789.94 203.06 812.46 188.32"/><polygon class="cls-7" points="789.94 203.06 850.29 177.86 748.22 180.22 789.94 203.06"/><polygon class="cls-1" points="770.57 195.35 789.94 203.06 770.33 231.35 742.48 224.67 748.15 204.09 770.57 195.35"/><polygon class="cls-1" points="740.93 200.49 761.22 208.55 789.94 203.06 774.46 193.29 759.48 184.42 740.93 200.49"/><polygon class="cls-4" points="750.22 174.78 745.06 207.69 758.3 223.47 738.35 244.21 708.43 231.35 720.81 191.24 750.22 174.78"/><polygon class="cls-4" points="681.09 190.03 678.94 234.18 696.56 241.98 720.29 209.24 689 184.89 681.09 190.03"/><polygon class="cls-4" points="689 184.89 693.13 196.55 707.14 222.35 716.17 218.15 719.95 182.84 693.81 174.95 689 184.89"/><polygon class="cls-4" points="714.75 213.74 707.14 222.35 696.56 241.98 724.42 251.75 735.51 242.28 728.2 233.58 714.75 213.74"/><polygon class="cls-4" points="713.76 177.69 728.55 213.35 758.3 223.47 767.41 182.49 713.76 177.69"/><polygon class="cls-1" points="707.14 222.35 728.2 233.58 727.86 219.87 719.95 182.84 713.2 187.38 707.14 222.35"/><polygon class="cls-1" points="726.14 174.26 728.55 192.78 727.86 219.87 710.32 180.78 702.41 174.61 726.14 174.26"/><polygon class="cls-1" points="691.06 175.12 677.65 189.01 678.94 234.18 706.19 187.98 696.91 178.89 691.06 175.12"/><polygon class="cls-1" points="726.14 174.26 674.9 173.24 677.65 189.01 693.13 196.55 708.26 178.38 726.14 174.26"/><polygon class="cls-6" points="648.59 156.26 705.68 157.46 772.57 151.98 782.54 150.95 822.95 156.52 825.27 177.61 769.9 188.54 728.55 192.78 648.59 156.26"/><polygon class="cls-8" points="648.59 156.26 705.68 157.46 750.39 153.45 723.9 173.24 728.55 192.78 648.59 156.26"/><polygon class="cls-7" points="648.59 156.26 624.21 174.39 707.4 189.95 732.93 178.63 723.9 173.24 648.59 156.26"/><polygon class="cls-7" points="827.08 178.38 838.26 171.18 822.95 156.52 723.9 173.24 718.58 182.49 781.68 186.09 827.08 178.38"/><polygon class="cls-11" points="728.55 192.78 789.94 203.06 769.9 188.54 728.55 192.78"/><polygon class="cls-6" points="783.91 179.06 838.26 171.18 850.29 177.86 770.07 188.58 783.91 179.06"/><polygon class="cls-7" points="715.14 184.89 718.58 182.49 784.91 179.89 769.9 188.54 728.55 192.78 715.14 184.89"/><polygon class="cls-7" points="624.21 174.39 609.9 185.58 728.55 192.78 723.9 173.24 624.21 174.39"/><polygon class="cls-7" points="39.36 170.58 75.89 165.42 103.83 155.92 179.15 167.75 98.07 182.88 39.36 170.58"/><polygon class="cls-6" points="279.87 175.57 324.41 177.56 357.26 184.21 382.62 186.88 347.3 193.15 279.87 175.57"/><polygon class="cls-7" points="279.87 175.57 305.89 174.24 324.41 177.56 347.3 193.15 308.56 199.84 279.87 175.57"/></g><g id="trees_front" data-name="trees front"><polygon class="cls-14" points="126.32 157.72 140.13 154.44 153.94 157.94 139.81 161.43 126.32 157.72"/><polygon class="cls-14" points="756.26 173.99 779.97 168.35 803.67 174.35 779.42 180.35 756.26 173.99"/><polygon class="cls-3" points="804.89 117.91 799.52 134.34 804.27 131.98 808.71 121.61 804.89 117.91"/><polygon class="cls-5" points="808.33 117.79 801.23 133.38 799.52 134.34 803.81 117.24 808.33 117.79"/><polygon class="cls-16" points="779.36 139.06 804.27 131.98 779.36 146.14 779.36 139.06"/><polygon class="cls-5" points="777.05 126.07 788.06 123.47 780.95 157.04 775.5 145.02 777.05 126.07"/><polygon class="cls-15" points="778.33 137.81 788.71 175.19 781.11 178.06 776.21 149.83 778.33 137.81"/><polygon class="cls-16" points="777.41 148.42 775.99 158.36 771.46 175.19 781.11 178.06 777.41 148.42"/><polygon class="cls-3" points="773.15 122.82 775.99 158.36 780.46 125.63 773.15 122.82"/><polygon class="cls-17" points="805.66 113.34 812.05 122.2 786.72 129.34 777.09 125.15 769.26 110.21 805.66 113.34"/><polygon class="cls-18" points="770.95 115.05 763.5 112.06 741.68 116.16 773.49 127.48 778.47 124.19 789.86 113.5 770.95 115.05"/><polygon class="cls-18" points="761.01 94.88 785.55 117.45 812.05 122.2 824.37 114.64 761.01 94.88"/><polygon class="cls-19" points="757.8 99.61 744.25 103.13 741.68 116.16 785.55 117.45 782.71 110.87 757.8 99.61"/><polygon class="cls-18" points="792.89 93.07 816.19 112.89 824.37 114.64 824.76 98.03 792.89 93.07"/><polygon class="cls-19" points="784.05 94.88 782.71 110.87 824.37 114.64 807.35 102.98 795.96 99.02 784.05 94.88"/><polygon class="cls-18" points="771.19 93.07 746.55 93.75 744.25 103.13 782.71 110.87 806.28 98.03 771.19 93.07"/><polygon class="cls-20" points="781.64 86.54 807.35 102.98 824.76 98.03 815.92 91.05 808.42 89.92 781.64 86.54"/><polygon class="cls-19" points="772.26 86.32 762.89 89.24 746.55 93.75 807.35 102.98 793.42 85.42 772.26 86.32"/><polygon class="cls-20" points="784.36 81.24 797.48 90.55 808.42 89.92 796.86 81.6 784.36 81.24"/><polygon class="cls-20" points="780.57 77.76 762.89 89.24 797.48 90.55 796.86 81.6 780.57 77.76"/><polygon class="cls-21" points="127.45 103.02 114.74 101.58 108.39 111.3 114.01 111.36 133.17 110.58 127.45 103.02"/><polygon class="cls-22" points="140.2 128.69 148.08 125.4 149.34 126.16 139.79 134.02 140.2 128.69"/><polygon class="cls-23" points="148.08 125.4 151.02 118.49 153.6 118.6 149.34 126.16 148.08 125.4"/><polygon class="cls-24" points="138.71 141.36 123.49 114.8 126.21 115.81 136.84 130.69 138.71 141.36"/><polygon class="cls-28" points="138.53 137.42 123.49 114.8 126.21 114.14 138.35 132.01 138.53 137.42"/><polygon class="cls-24" points="139.17 159.42 138.62 144.48 139.51 119.27 141.28 118.94 144.51 156.94 139.17 159.42"/><polygon class="cls-23" points="139.51 119.27 137.6 119.71 136.14 158.14 139.17 159.42 139.51 119.27"/><polygon class="cls-25" points="164 120 149.34 122.59 137.6 119.71 128.55 117.69 118.99 117.73 108.39 111.3 129.03 109.46 153.27 114.76 171.08 113.8 164 120"/><polygon class="cls-26" points="108.39 111.3 127.09 115.43 152.93 115.43 129.17 108.04 108.39 111.3"/><polygon class="cls-26" points="152.93 115.43 156.02 112.54 168.66 105.86 171.08 113.8 152.93 115.43"/><polygon class="cls-25" points="152.93 115.43 168.66 105.86 136.16 102.83 129.03 108.12 152.93 115.43"/><polygon class="cls-21" points="168.66 105.86 157.35 98.16 131.02 97.83 136.84 103.5 168.66 105.86"/><polygon class="cls-26" points="129.03 108.12 136.84 103.5 132.36 98.16 127.85 96.66 119.69 95.82 114.74 101.58 129.03 108.12"/><polygon class="cls-27" points="157.35 98.16 151.15 88.1 132.76 90.3 130.09 86.27 119.69 95.82 129.6 93.39 132.36 98.16 157.35 98.16"/><polygon class="cls-21" points="132.36 98.16 129.6 92.39 119.69 95.82 132.36 98.16"/><polygon class="cls-27" points="130.09 86.27 151.15 88.1 129.6 92.39 130.09 86.27"/><polygon class="cls-13" points="396.79 328.38 374.61 331.54 360.1 340.36 366.1 340.52 376.78 334.04 400.63 330.21 396.79 328.38"/><polygon class="cls-13" points="374.19 340.44 381.12 336.37 410.72 331.46 413.64 332.38 383.03 338.28 377.86 340.61 374.19 340.44"/></g><g id="Rock"><polygon class="cls-4" points="36.51 283.21 57.54 282.49 57.79 309.31 34.32 321.78 26.71 290.41 36.51 283.21"/><polygon class="cls-5" points="25.29 284.75 8.27 285.13 0.33 315.25 34.32 321.78 36.64 289.63 25.29 284.75"/><polygon class="cls-8" points="41.03 280.38 8.27 285.13 36.64 289.63 58.04 282.49 41.03 280.38"/><polygon class="cls-4" points="875.57 272.84 884.51 270.95 900.33 294.44 883.14 302.5 875.74 281.41 875.57 272.84"/><polygon class="cls-5" points="876.95 274.04 879.35 280.21 883.14 302.5 875.05 302.84 850.29 302.5 850.29 284.33 862.33 274.73 876.95 274.04"/><polygon class="cls-1" points="854.08 268.21 884.51 270.95 879.35 280.21 840.84 279.01 854.08 268.21"/><polygon class="cls-4" points="768.1 232.55 807.65 234.27 816.25 274.04 753.65 275.41 768.1 232.55"/><polygon class="cls-5" points="759.16 228.44 728.2 233.58 723.9 251.75 783.23 282.61 783.23 237.35 759.16 228.44"/><polygon class="cls-4" points="828.63 269.41 857.52 264.78 858.03 314.15 790.45 321.36 799.22 278.15 828.63 269.41"/><polygon class="cls-5" points="811.09 276.1 822.44 281.24 821.75 326.84 762.6 304.9 756.4 278.15 784.26 273.01 811.09 276.1"/><polygon class="cls-7" points="751.76 278.15 822.44 281.24 857.52 264.78 762.94 268.21 751.76 278.15"/><polygon class="cls-4" points="802.83 298.21 875.05 302.84 883.31 332.93 788.9 349.64 774.46 319.3 802.83 298.21"/><polygon class="cls-4" points="733.45 265.04 769.82 259.64 774.2 311.84 730.1 327.19 703.01 266.32 733.45 265.04"/><polygon class="cls-5" points="725.97 261.35 685.39 259.3 676.94 308.37 677.13 323.07 708.43 327.64 730.1 327.19 720.47 275.07 725.97 261.35"/><polygon class="cls-4" points="659.17 322.08 703.35 308.74 708.43 327.64 670.85 349.51 659.17 322.08"/><polygon class="cls-4" points="137.36 199.46 166.76 196.89 172.96 270.44 117.76 274.55 122.92 203.06 137.36 199.46"/><polygon class="cls-29" points="126.53 197.92 94.03 196.89 89.13 276.61 142.52 297.7 143.55 237.27 135.81 208.21 126.53 197.92"/><polygon class="cls-4" points="100.73 245.24 120.34 244.21 125.5 277.13 108.99 308.5 88.35 308.5 91.45 256.04 100.73 245.24"/><polygon class="cls-15" points="87.84 249.87 54.71 252.89 50.45 316 102.28 312.1 100.73 257.07 87.84 249.87"/><polygon class="cls-5" points="130.48 283.3 40.38 302.84 41.41 334.38 130.48 349.81 181.38 301.13 130.48 283.3"/><polygon class="cls-4" points="196.51 295.64 163.5 341.58 130.48 349.81 132.26 322.06 176.57 291.53 196.51 295.64"/><polygon class="cls-5" points="280.43 320.33 245.35 349.13 163.5 341.58 174.63 312.47 275.61 310.04 280.43 320.33"/><polygon class="cls-4" points="243.29 293.58 245.23 327.19 245.35 349.13 372.6 327.53 417.31 318.96 394.79 277.27 267.84 290.94 243.29 293.58"/><polygon class="cls-5" points="664.75 316.52 630.73 326.53 626.66 346.92 670.85 349.51 675.42 328.39 664.75 316.52"/><polygon class="cls-1" points="676.94 308.37 630.73 326.53 675.42 328.39 703.35 308.74 676.94 308.37"/><polygon class="cls-1" points="175.91 252.95 394.79 277.27 245.23 327.19 174.63 312.47 132.26 322.06 40.38 302.84 125.5 277.13 175.91 252.95"/><polygon class="cls-5" points="336.23 291.01 357.89 289.73 372.94 327.64 330.12 349.81 308.37 314.15 312.24 294.87 336.23 291.01"/><polygon class="cls-29" points="288 298.98 272.26 301.81 268.39 344.76 330.12 349.81 318.17 302.84 288 298.98"/><polygon class="cls-4" points="295.73 285.18 357.89 289.73 318.17 302.84 272.26 301.81 295.73 285.18"/><polygon class="cls-5" points="162.12 236.5 143.55 237.27 125.5 277.13 167.28 282.27 196.17 238.04 162.12 236.5"/><polygon class="cls-3" points="147.03 276.47 168.29 274.09 167.04 300.38 146.19 312.21 125.22 284.83 147.03 276.47"/><polygon class="cls-4" points="103.12 271.7 91.36 269.23 86.98 299.95 146.19 312.21 135.72 282.42 103.12 271.7"/><polygon class="cls-7" points="91.36 269.23 123.76 264.86 168.29 274.09 135.72 282.42 91.36 269.23"/><polygon class="cls-4" points="180.69 237.27 172.18 243.18 167.28 282.27 243.37 261.95 212.42 223.89 180.69 237.27"/><polygon class="cls-1" points="206.75 219.78 143.55 237.27 172.18 243.18 224.8 226.72 206.75 219.78"/><polygon class="cls-8" points="94.03 196.89 134.77 191.7 166.76 196.89 135.81 208.21 94.03 196.89"/><polygon class="cls-7" points="54.71 252.89 90.93 239.58 120.34 244.21 100.73 257.07 54.71 252.89"/><polygon class="cls-1" points="685.39 259.3 723.9 251.75 769.82 259.64 720.47 275.07 685.39 259.3"/><polygon class="cls-5" points="776.01 310.56 739.38 309.53 735.77 336.79 788.9 349.64 789.94 325.47 776.01 310.56"/><polygon class="cls-7" points="822.09 292.9 739.38 309.53 789.94 325.47 875.05 302.84 822.09 292.9"/><polygon class="cls-8" points="757.61 223.47 807.65 234.27 783.23 237.35 728.2 233.58 757.61 223.47"/></g><g id="Dragon"><polygon class="cls-11" points="568.59 57.5 554.91 58 552.07 69.98 579.51 70.68 568.59 57.5"/><polygon class="cls-20" points="584.6 58 576.26 47.36 554.91 58 581.76 71.81 584.6 58"/><polygon class="cls-19" points="598.44 71.14 595.11 50.77 576.26 47.36 580.99 81.39 598.44 71.14"/><polygon class="cls-7" points="629.3 96.75 630.63 106.23 650.27 119.82 653.08 116.81 645.14 96.91 629.3 96.75"/><polygon class="cls-7" points="590.23 102.86 586.48 111.59 600.61 121.69 604.86 120.61 599.48 104.73 590.23 102.86"/><polygon class="cls-18" points="590.85 81.66 587.1 91.64 586.48 111.59 605.86 104.48 590.85 81.66"/><polygon class="cls-19" points="643 82.05 660.9 98.72 703.85 94.59 643 82.05"/><polygon class="cls-19" points="606.73 102.11 614.95 104.94 638.33 106.78 650.37 93.07 643.57 77.11 597.36 76.63 606.73 102.11"/><polygon class="cls-10" points="682.34 89.1 722.2 79.95 703.85 94.59 682.34 89.1"/><polygon class="cls-19" points="635.59 75.74 660 86.86 703.85 94.59 644.31 72.3 635.59 75.74"/><polygon class="cls-10" points="620.85 54.08 620.09 42.78 663.49 39.55 626.42 69.9 620.85 54.08"/><polygon class="cls-10" points="600.45 79.51 604.41 68.87 620.09 42.78 645.98 70.09 608.62 78.91 600.45 79.51"/><polygon class="cls-11" points="614.87 104.98 609.68 101.91 603.33 115.96 622.13 121.19 626.3 116.54 614.87 104.98"/><polygon class="cls-11" points="643 94.63 638.33 106.78 668.91 115.58 670.35 111.38 660.9 98.72 643 94.63"/><polygon class="cls-18" points="639.74 83.32 638.33 106.78 660.9 98.72 660 86.86 639.74 83.32"/><polygon class="cls-20" points="594.26 87.14 593.17 102.11 603.33 115.96 614.95 104.94 608.62 78.91 594.26 87.14"/><polygon class="cls-19" points="595.06 70.28 580.99 81.39 593.17 102.11 608.62 78.91 622.5 68.69 606.73 65.05 595.06 70.28"/><polygon class="cls-17" points="595.11 50.77 580.99 81.39 606.82 65.19 595.11 50.77"/><polygon class="cls-10" points="649 65.01 660 86.86 608.62 78.91 649 65.01"/><polygon class="cls-9" points="608.62 78.91 638.61 48.24 680.36 65.57 608.62 78.91"/><path class="cls-17" d="M574.09,58.12a3.29,3.29,0,1,1-3.28-3.28A3.27,3.27,0,0,1,574.09,58.12Z"/></g><g id="Main_Character" data-name="Main Character"><polygon class="cls-30" points="303.81 287.58 295.63 285.32 274.32 300.4 207.52 315.53 244.32 320.84 270.73 318.72 272.26 301.81 307.94 300.78 333.05 297.01 315.51 293.58 303.81 287.58"/><polygon class="cls-31" points="330.45 79.35 332.6 71 344.41 60.09 350.85 69.93 345.91 82.99 330.45 79.35"/><polygon class="cls-32" points="319.29 91.55 333.91 90.94 345.91 82.99 332.6 71 324.65 79.35 319.29 91.55"/><polygon class="cls-31" points="315.85 96.05 321.78 84.52 321.22 76.36 329.59 66.94 331.74 69.72 328.52 75.93 330.24 83.63 319.93 98.4 315.85 96.05"/><polygon class="cls-17" points="217.65 272.83 296.97 272.93 345.45 252.23 293.96 161.92 218.31 171.62 206.06 197.35 204.64 269.23 217.65 272.83"/><polygon class="cls-19" points="201.75 201.27 198.03 295.93 221.75 316.64 211.59 192.28 200.65 180.83 201.75 201.27"/><polygon class="cls-32" points="192.84 225.06 194.64 239.23 191.31 243.7 185.02 236.62 192.84 225.06"/><polygon class="cls-32" points="186.55 235.03 188.96 243.42 188.9 256.12 182.56 253.34 173.32 237.92 186.55 235.03"/><polygon class="cls-33" points="266.3 147.1 293.47 162.14 280.68 207.1 242.2 216.31 224.21 196.37 219.13 185.41 203.44 166.5 266.3 147.1"/><polygon class="cls-20" points="246.3 154.13 249.63 160.78 243.23 166.61 211.2 166.5 203.6 163.23 201.97 150.91 217.22 141.6 232.85 140.62 246.3 154.13"/><polygon class="cls-34" points="198.03 140.29 179.83 131.51 181.08 113.91 193.49 115.98 198.03 140.29"/><polygon class="cls-20" points="246.3 154.13 258.7 157.62 275.32 146.23 276.85 119.42 253.78 127.81 231.26 143.61 246.3 154.13"/><polygon class="cls-7" points="261.6 179.85 249.68 171.35 243.23 166.61 258.87 157.18 271.5 158.54 261.6 179.85"/><polygon class="cls-9" points="258.87 157.18 255.75 169.72 243.23 166.61 246.3 154.13 258.87 157.18"/><polygon class="cls-12" points="261.6 179.85 293.47 162.14 280.68 207.1 264.44 220.29 240.45 233.59 229.57 219.58 224.21 196.37 261.6 179.85"/><polygon class="cls-33" points="266.57 203.78 273.85 214.46 296.58 211.08 293.47 162.14 261.6 179.85 266.57 203.78"/><polygon class="cls-12" points="258.87 157.18 261.6 179.85 295.93 160.72 290.52 154.51 290.74 138.49 276.85 119.42 258.87 157.18"/><polygon class="cls-19" points="211.2 166.5 201.97 150.91 192.23 166.45 201.58 175.11 211.2 166.5"/><polygon class="cls-7" points="201.97 198.59 192.84 225.06 184.91 230.29 180.54 222.71 180.37 194.87 193.6 181.51 201.97 198.59"/><polygon class="cls-12" points="219.13 185.41 201.97 198.59 180.37 194.87 192.23 166.45 211.2 166.5 219.13 185.41"/><polygon class="cls-32" points="253.12 280.87 245.14 306.45 240.98 310.65 230.54 304.92 230.79 272.79 250.35 276.79 253.12 280.87"/><polygon class="cls-32" points="297.71 264.17 295.63 285.32 301.54 293.55 308.81 286.46 322.96 255.02 302.25 256.87 297.71 264.17"/><polygon class="cls-31" points="295.63 285.32 309.13 285.53 322.8 296.38 314.06 297.25 293.94 297.09 295.63 285.32"/><polygon class="cls-32" points="314.06 297.25 325.32 290.66 324.06 297.42 314.06 297.25"/><polygon class="cls-31" points="245.14 306.45 245.19 317.68 220.59 316.86 230.54 304.92 245.14 306.45"/><polygon class="cls-32" points="220.59 316.86 232.95 309.83 245.19 317.68 220.59 316.86"/><polygon class="cls-35" points="230.79 272.79 253.12 280.87 255.94 272.89 230.79 272.79"/><polygon class="cls-35" points="297.71 264.17 322.96 255.02 298.69 255.02 297.71 264.17"/><polygon class="cls-33" points="276.85 119.42 290.52 154.51 316.4 119.2 315.17 99.8 296.23 108.79 276.85 119.42"/><polygon class="cls-7" points="321.78 84.52 296.23 108.79 316.4 119.2 333.91 90.94 321.78 84.52"/><polygon class="cls-31" points="180.54 222.71 173.32 237.92 188.96 243.42 192.84 225.06 180.54 222.71"/><polygon class="cls-20" points="290.52 154.51 293.36 150.15 348.84 252.77 335.56 287.49 290.52 154.51"/><polygon class="cls-9" points="238.42 219.58 229.57 219.58 230.79 272.79 255.94 272.89 266.3 241.16 280.54 243.99 273.85 214.46 238.42 219.58"/><polygon class="cls-10" points="296.58 211.08 273.85 214.46 266.3 241.16 298.03 260.31 322.96 255.02 296.58 211.08"/><polygon class="cls-7" points="273.85 214.46 266.57 203.78 262.86 216.04 273.85 214.46"/><polygon class="cls-31" points="255.53 121.65 241.92 138.44 246.3 154.13 217.22 141.6 212.3 107.21 202.29 87.48 201.03 61.92 228.75 45.84 254.22 48.73 259.91 54.29 279.37 112.33 255.53 121.65"/><polygon class="cls-32" points="196.55 100.45 217.22 141.6 246.3 154.13 249.63 142.52 234.27 129.22 213.39 74.78 208.8 69.77 201.97 86.88 196.55 100.45"/><polygon class="cls-16" points="221.64 44.65 252.42 23.17 240.01 20.56 178.84 48.41 195.62 60.4 221.64 44.65"/><polygon class="cls-34" points="262.58 45.14 262.86 51.89 279.37 64.75 269.64 83.28 259.91 54.29 254.55 48.79 256.85 44.1 262.58 45.14"/><polygon class="cls-36" points="256.63 90.75 249.03 93.58 239.74 69.55 247.33 66.72 256.63 90.75"/><polygon class="cls-35" points="256.63 90.75 254.55 94.89 249.03 93.58 256.63 90.75"/><polygon class="cls-35" points="203.33 113.86 212.3 107.21 208.69 124.59 203.33 113.86"/><polygon class="cls-37" points="221.21 73.2 224.76 74.78 230.28 67.86 235.8 67.86 235.8 66.72 229.73 65.19 221.21 73.2"/><polygon class="cls-37" points="245.86 62.74 247.33 66.72 252.86 59.74 257.06 60.23 257.06 59.36 251.49 57.4 245.86 62.74"/><polygon class="cls-32" points="224.76 74.78 246.24 86.34 239.74 69.55 235.8 67.86 230.28 67.86 224.76 74.78"/><polygon class="cls-32" points="251.82 78.22 257.06 60.23 252.86 59.74 247.33 66.72 251.82 78.22"/><polygon class="cls-35" points="244.75 104.3 264.12 97.51 263.71 108.44 251.91 112.58 244.75 104.3"/><polygon class="cls-35" points="249.63 142.52 255.53 121.65 228.53 131.3 249.63 142.52"/><polygon class="cls-16" points="259.91 54.29 262.58 45.14 279.37 64.75 259.91 54.29"/><polygon class="cls-38" points="270.02 59.74 269.64 83.28 272.48 91.84 279.37 64.75 270.02 59.74"/><polygon class="cls-39" points="203.33 113.86 212.3 107.21 202.07 86.72 194.75 96.69 203.33 113.86"/><polygon class="cls-35" points="198.74 97.89 202.02 93.69 206.34 103.07 198.74 97.89"/><polygon class="cls-31" points="223.94 62.79 257.06 51.35 254.55 48.79 223.94 62.79"/><polygon class="cls-34" points="171.52 98.98 195.35 122.58 198.03 140.29 217.22 141.6 194.75 96.69 188.08 87.86 171.52 98.98"/><polygon class="cls-37" points="171.52 98.98 203.33 113.86 198.03 140.29 171.52 98.98"/><polygon class="cls-37" points="221.7 109.06 205.96 76.96 208.8 69.77 205.24 54.51 178.84 48.41 171.52 98.98 194.75 96.69 201.97 86.88 215.03 112.71 221.7 109.06"/><polygon class="cls-16" points="276.31 76.96 280.3 87.21 275.65 101.32 272.48 91.84 276.31 76.96"/><polygon class="cls-40" points="252.42 23.17 238.37 48.19 208.8 69.77 178.84 48.41 252.42 23.17"/><polygon class="cls-16" points="252.42 23.17 208.8 69.77 268.11 42.57 252.42 23.17"/><polygon class="cls-10" points="275.32 186.45 272.59 191.68 267.29 189.01 270.02 183.67 275.32 186.45"/><polygon class="cls-10" points="279.37 203.72 276.63 209.06 271.33 206.28 274.01 201 279.37 203.72"/><path class="cls-34" d="M255.92,67.64a3.27,3.27,0,0,0-3.23,3.22,3.22,3.22,0,0,0,3.23,3.21,3.18,3.18,0,0,0,3.22-3.21A3.22,3.22,0,0,0,255.92,67.64Z"/><path class="cls-34" d="M234.87,75.22a3.22,3.22,0,1,0,3.23,3.21A3.22,3.22,0,0,0,234.87,75.22Z"/><polygon class="cls-10" points="229.57 219.58 266.3 241.16 296.58 211.08 229.57 219.58"/><polygon class="cls-41" points="248.54 105.14 262.08 100.28 262.08 104.12 251.01 107.96 248.54 105.14"/></g><g id="bird"><polygon class="cls-18" points="353.42 38.48 369.33 26.14 388.16 39 354.71 42.69 353.42 38.48"/><polygon class="cls-10" points="359.89 54.24 362.62 59.74 353.64 66.58 358.41 56.87 349.71 62.85 355.83 52.44 359.89 54.24"/><polygon class="cls-17" points="370.71 55.8 362.62 59.74 349.21 50.66 363.83 47.23 373.63 50.49 370.71 55.8"/><polygon class="cls-19" points="373.63 50.49 402.52 68.66 362.62 59.74 373.63 50.49"/><polygon class="cls-18" points="353.85 39.69 372.21 40.41 373.63 50.49 349.21 50.66 346.46 44.06 353.85 39.69"/><polyline class="cls-19" points="339.07 37.63 344.1 31.29 374.14 39.13 346.46 44.14 339.75 37.97"/><path class="cls-18" d="M335.28,42.26l2.41.85,8.77,1L344.1,31.28s-5.38,0-5.89.52S332,40.54,332,40.54Z"/><polygon class="cls-19" points="332.7 40.37 334.08 36.09 338.29 25.37 361.08 26.74 344.1 31.29 332.7 40.37"/><polygon class="cls-10" points="334.08 36.09 330.81 42.77 337.69 43.11 334.08 36.09"/><path class="cls-17" d="M343.88,37.62a2.36,2.36,0,1,1-2.36-2.35A2.36,2.36,0,0,1,343.88,37.62Z"/><polygon class="cls-17" points="369.55 40.84 389.02 31.46 373.11 48.51 354.71 42.69 369.55 40.84"/><polygon class="cls-20" points="390.14 29.74 354.93 42.6 400.71 49.63 390.14 29.74"/></g></svg>